<svg version="1" xmlns="http://www.w3.org/2000/svg" width="2730.667" height="2730.667" viewBox="0 0 2048.000000 2048.000000"><path d="M28.2 1024.6V2038H657v-4.3c.1-2.3.2-187.3.3-411.2l.2-406.9 32 .1c28.8 0 50.6.7 56 1.7 1.1.2 4.3.7 7 1 9.2 1.3 11 1.6 20 3.6 5 1.1 10.1 2.3 11.5 2.6 4.9 1 29.6 9.6 36.5 12.7 42 18.8 64.5 37 93.9 76 9.5 12.6 30.6 43.9 30.6 45.3 0 .4.6 1.5 1.4 2.3.7.9 5.3 8.3 10.1 16.6 7.6 12.9 13.3 23.3 33.3 60.5 1.9 3.6 4.5 8.3 5.7 10.5 1.2 2.2 4.2 7.6 6.5 12 2.4 4.4 7.1 13.2 10.5 19.5 3.5 6.3 8 14.6 10 18.5 2.1 3.8 6.6 12.2 10 18.5 3.4 6.3 8 14.9 10.3 19 2.2 4.1 8.1 15.1 13.2 24.5 5.1 9.3 11.3 20.8 13.8 25.5 2.4 4.7 5.6 10.5 7 13 2.4 4.3 4.6 8.4 13.5 25 2.2 4.1 5 9.3 6.2 11.5 2.3 4.1 5 9 14.1 26 2.9 5.5 6.2 11.6 7.3 13.5 1.1 1.9 3.3 6 4.8 9s3.1 5.7 3.6 5.8c.4.2.7.8.7 1.4 0 .5 2.6 5.7 5.9 11.6 3.2 5.9 7.4 13.6 9.3 17.2 7.9 14.5 23.7 43.9 27 50 1.9 3.6 7.8 14.4 13 24s11.5 21.1 13.8 25.5c2.3 4.4 5.5 10.2 7 13 1.5 2.7 4.3 7.9 6.3 11.5 1.9 3.6 9.4 17.5 16.7 31 7.3 13.5 15.2 28.1 17.5 32.5 2.3 4.4 5.3 9.8 6.5 12 1.2 2.2 4.3 7.8 6.8 12.5 2.4 4.7 5.5 10.3 6.7 12.5 1.2 2.2 3.8 6.9 5.8 10.5 1.9 3.6 4.8 9 6.4 12 1.7 3 5.3 9.8 8.1 15 2.8 5.2 10.7 19.8 17.6 32.5l12.4 23 353.6.3c258 .1 353.6-.1 353.6-.9 0-.6-3.5-7.9-7.9-16.3-4.3-8.3-12.4-24.1-18.1-35.1-5.6-11-12.2-23.6-14.5-28-2.3-4.4-9.3-17.9-15.5-30-6.2-12.1-13.4-26.1-16-31-2.6-5-8.6-16.4-13.3-25.5-11.3-22-23.3-45.3-32.5-63-4.1-8-11.1-21.5-15.5-30s-11.2-21.8-15.2-29.5c-4-7.7-11-21.2-15.5-30s-11.3-21.9-15-29c-3.7-7.2-10.9-21.1-16-31-5.1-9.9-12.1-23.4-15.5-30-3.4-6.6-10.2-19.7-15-29-4.8-9.4-12.1-23.5-16.3-31.5-7.6-14.9-18.7-36.3-29.7-57.5-3.4-6.6-11.5-22.4-18-35-21.3-41.5-32.2-59.6-53.8-89.5-8.5-11.7-29.6-39.9-30.7-41-.3-.3-5.9-7.3-12.4-15.5-6.6-8.3-12.8-15.9-13.7-17-1-1.1-4.2-4.9-7.1-8.5-2.9-3.6-5.5-6.7-5.8-7-.3-.3-3-3.4-6-7s-5.7-6.7-6-7c-.3-.3-2.3-2.5-4.4-5-19.1-21.9-43-45.9-55.6-55.5-21.3-16.3-53-33.8-87-48-7.4-3.1-14.4-6-15.5-6.5-1.1-.6-5.1-2.1-9-3.6-3.8-1.4-8.3-3.1-10-3.9-1.6-.7-6.8-2.6-11.5-4.3-23.9-8.5-28.7-10.2-31.2-10.8-4.4-1-3.3-1.9 4-3.4 3.7-.7 15-3.5 25.2-6.2s19.2-5.1 20-5.3c5.2-1.1 45.6-13.2 48.5-14.4 1.1-.5 6.7-2.5 12.5-4.5 33.5-11.2 71.4-28 96.5-42.6 5-2.9 10.6-6.1 12.5-7.2 11.4-6.6 44.4-29.5 56.4-39.1 27.9-22.5 49.4-42.3 69.1-63.8 36.9-40.2 71.4-91.7 91-135.9 3-6.9 6-13.4 6.5-14.5 7.4-16.1 22.3-61 25.4-76.5.2-1.4 1.8-8.4 3.4-15.5 3.1-13.2 4.1-18 4.6-22.5.2-1.4.7-4.5 1.2-7s.9-5 1-5.5c.3-3.3 1.7-13.3 2-15 .2-1.1.6-4 .9-6.5.3-2.5.8-5.9 1-7.5.9-7.3 1.9-20.7 3-40.5 1.4-23.6.9-72.4-1-93.5-.2-2.8-.7-8.4-1-12.5-.4-4.1-.9-8.9-1.1-10.6-.3-1.7-.6-4.6-.8-6.5-.2-1.9-.7-5.4-1-7.9-.3-2.5-.8-6.1-1-8-.2-1.9-.7-4.6-1-6-.3-1.4-.7-4.3-1-6.5-.3-2.2-.8-5.1-1.1-6.5-.3-1.4-.8-3.9-1-5.5-.6-3.1-1.8-9.6-2-10.5-.1-.3-.5-2.3-1-4.5-.4-2.2-.9-4.7-1.1-5.5-.9-3.7-3.5-14.7-3.9-16.3-4.3-17.8-17.2-57-23-70.2-.7-1.7-2.2-5.3-3.3-8-1.1-2.8-3.9-8.9-6.1-13.8-2.3-4.8-4.1-9-4.2-9.5 0-.4-.4-1.2-.9-1.7-.4-.6-3.1-5.5-6-11-6.9-13.2-14.7-26.5-23.5-40-7-10.6-19.8-28.7-21.9-31.2-.6-.6-2.2-2.6-3.6-4.4-8.6-11.3-26.7-31.6-40.5-45.4-15.3-15.3-18.1-17.9-29-27-2.6-2.2-6.4-5.4-8.4-7-27.3-22.9-71.5-49.5-107.1-64.4-6.9-2.9-13.4-5.7-14.5-6.2-2.5-1.1-20.4-7.6-26.5-9.6-7.4-2.4-20.4-6.4-22-6.8-.8-.2-4-1.1-7-2-3-.9-7.3-2.1-9.5-2.6-2.2-.6-5.6-1.4-7.5-1.9-5.1-1.3-21.2-5.1-23.5-5.6-1.1-.2-3.1-.6-4.5-.9-1.4-.4-3.4-.8-4.5-1-1.1-.3-3.1-.7-4.5-1-1.4-.3-6.3-1.3-11-2.1-4.6-.9-8.7-1.7-9-1.9-.3-.2-3-.6-6-1s-5.7-.8-6-1c-.3-.2-3-.6-6-1s-5.7-.8-6-1c-.3-.2-3-.6-6-1-2.9-.3-5.6-.8-5.9-1-.4-.2-3.8-.6-7.6-1-3.9-.4-7.3-.9-7.6-1.1-.3-.2-3-.6-6-.9-3-.4-6.5-.8-7.9-1-1.4-.2-5-.6-8-1-3-.3-6.8-.8-8.5-1-1.6-.3-5.8-.7-9.3-1-3.5-.3-7.5-.7-9-.9-2.8-.5-10.9-1.3-19.7-2.1-2.7-.2-7.6-.7-10.7-1-11.3-1-17.2-1.5-41.3-3.1-27.4-1.8-98.2-4.9-104.2-4.5-.7.1-1.9.1-2.5 0-.7 0-250.9-.2-555.9-.4l-554.7-.3v1013.4zm953.3-605.3c3.3.3 10.5.8 16 1.2 5.5.4 11.4.8 13 1 1.7.1 6.2.6 10 1 11.6 1.1 14.7 1.5 15.4 1.9.3.2 3.5.7 7.1 1 3.6.4 7.4.9 8.5 1.1 1.1.3 3.1.7 4.5.9 1.4.2 5.9 1.1 10 2 4.1.8 8.6 1.7 10 2 13.1 2.6 37.7 10.3 49 15.3 15.8 7.1 31.3 16 37.5 21.5 1.1 1 3.1 2.7 4.5 3.9 32.4 27 54.7 71.2 59.5 118.2 1.5 14.5 1.8 19.6 1.8 31.2 0 19.9-1.5 33.1-5.7 51-4.1 17.2-14.5 40.8-24.9 56.7-15.1 22.9-35.7 43.4-55.2 55.1-9.3 5.5-22.2 11.6-30.5 14.4-4.1 1.3-8.2 2.7-9 3-.8.4-1.9.7-2.5.7-.5.1-2.8.7-5 1.3-2.2.7-5.1 1.4-6.5 1.7-1.4.3-3.6.7-5 1.1-1.4.3-3.4.7-4.5.9-1.1.2-5 1.1-8.8 2-3.7.9-8.2 1.8-10 2.1-1.7.3-6 1.2-9.3 2-6.8 1.6-10.4 2.3-14.9 3.2-4.6.8-6 1.1-6 1.3 0 .1-1.2.3-2.7.5-1.4.2-8.4 1.5-15.5 2.9-14.5 3-14.9 3-21.8 4.1-2.7.5-5.2.9-5.5 1-.3.1-3 .5-6 .9-3 .5-6.4 1-7.5 1.2-1.1.2-3.6.6-5.5.9-1.9.2-5.1.7-7 1-1.9.3-5.5.7-8 1-2.5.2-7.4.7-11 1.1-3.6.4-68.6.8-144.5.8l-138 .1-.2-206.5c-.1-113.6-.1-207 .2-207.6.2-.8 43.2-1.1 159.2-.9 87.3.2 161.5.5 164.8.8z"/></svg>